<?xml version="1.0" encoding="utf-8"?>
<!-- Generator: Adobe Illustrator 16.0.0, SVG Export Plug-In . SVG Version: 6.00 Build 0)  -->
<!DOCTYPE svg PUBLIC "-//W3C//DTD SVG 1.1//EN" "http://www.w3.org/Graphics/SVG/1.1/DTD/svg11.dtd">
<svg version="1.1" id="Layer_1" xmlns="http://www.w3.org/2000/svg" xmlns:xlink="http://www.w3.org/1999/xlink" x="0px" y="0px"
	 width="609px" height="116px" viewBox="1 8.5 609 116" enable-background="new 1 8.5 609 116" xml:space="preserve">
<title>London Skyline</title>
<g>
	<title>Layer 2</title>
</g>
<g>
	<defs>
		<rect id="SVGID_1_" x="-4.5" y="-6.833" width="628.667" height="130.667"/>
	</defs>
	<clipPath id="SVGID_2_">
		<use xlink:href="#SVGID_1_"  overflow="visible"/>
	</clipPath>
	<g clip-path="url(#SVGID_2_)">
		<title>Layer 1</title>
		<g id="layer12">
			<rect id="rect2693" x="1.012" y="139.506" width="608.968" height="59.785"/>
			<rect id="rect3848" x="1.012" y="117" width="608.962" height="31.413"/>
		</g>
		<g id="layer11">
			<g id="g3228">
			</g>
			<g id="g3909">
				<path id="path3094" stroke="#000000" stroke-width="0.1296" d="M606.046,132.139l-0.044-14.126c0,0,1.208-0.161,1.853-0.913
					c0-0.107,0-37.424,0-37.424l-12.782,0c0,0,0,37.317,0,37.424c0.645,0.752,1.853,0.913,1.853,0.913v13.934
					C599.037,133.777,603.932,133.329,606.046,132.139L606.046,132.139z"/>
				<path id="path3096" stroke="#000000" stroke-width="0.1296" d="M598.933,79.7l-0.04-19.625h5.088l0.014,19.62L598.933,79.7z"/>
				<path id="path3098" stroke="#000000" stroke-width="0.1296" d="M595.609,76.306v1.386h11.731v-1.405L595.609,76.306
					L595.609,76.306z"/>
				<path id="path3100" stroke="#000000" stroke-width="0.1296" d="M595.665,72.357v1.386h11.732v-1.405L595.665,72.357
					L595.665,72.357z"/>
				<path id="path3102" stroke="#000000" stroke-width="0.1296" d="M595.59,68.409v1.386h11.731V68.39L595.59,68.409L595.59,68.409z
					"/>
				<path id="path3104" stroke="#000000" stroke-width="0.1296" d="M595.703,64.441v1.386h3.315h8.417v-1.405L595.703,64.441z"/>
				<path id="path3106" stroke="#000000" stroke-width="0.1296" d="M595.609,60.417v1.386h11.731v-1.405L595.609,60.417z"/>
				<path id="path3108" stroke="#000000" stroke-width="0.1296" d="M604.075,60.053c0,0,3.189-0.114,3.797-0.531
					c-0.019-0.987-0.019-1.006-0.019-1.006s-0.19-0.189-0.76-0.285c-0.057,0.019-0.038-0.247-0.038-0.247h0.531l0.247-0.247v-4.024
					h0.342c0,0,0.213-0.116,0.286-0.311c0-0.222,0-5.229,0-5.229s-0.282-0.329-0.651-0.443c0.021-0.021,0-3.564,0-3.564
					c-0.403-0.663-2.228-0.904-3.449-1.067l0.007-0.275c0,0,1.061-0.074,1.248-0.302c0.021,0,0.39-0.329,0.41-0.463
					c0.013-0.027,0-2.45,0-2.45c-0.143-0.247-1.236-0.678-2.235-0.745l-4.651,0.003c-1,0.067-2.093,0.498-2.235,0.745
					c0,0-0.014,2.423,0,2.45c0.021,0.134,0.39,0.463,0.409,0.463c0.188,0.229,1.249,0.302,1.249,0.302l0.007,0.275
					c-1.222,0.164-3.046,0.405-3.45,1.067c0,0-0.02,3.543,0,3.564c-0.369,0.114-0.65,0.443-0.65,0.443s0,5.007,0,5.229
					c0.073,0.194,0.286,0.311,0.286,0.311h0.342v4.024l0.247,0.247h0.531c0,0,0.019,0.266-0.038,0.247
					c-0.569,0.095-0.76,0.285-0.76,0.285s0,0.019-0.019,1.006c0.607,0.417,3.797,0.532,3.797,0.532L604.075,60.053L604.075,60.053z"
					/>
				<path id="path3110" stroke="#000000" stroke-width="0.1296" d="M595.972,76.278V76.01h-0.698l-0.121,0.403l-0.806,0.014
					l-0.161-0.752v-0.778l0.148-0.51l0.818-0.027l0.201,0.269v1.141l0.913,0.026l0.014,0.443L595.972,76.278L595.972,76.278z"/>
				<path id="path3112" stroke="#000000" stroke-width="0.1296" d="M595.74,72.29v-0.269h-0.698l-0.12,0.403l-0.806,0.014
					l-0.161-0.752v-0.778l0.147-0.51l0.819-0.027l0.201,0.269v1.141l0.913,0.027l0.013,0.443L595.74,72.29L595.74,72.29z"/>
				<path id="path3114" stroke="#000000" stroke-width="0.1296" d="M595.905,68.399V68.13h-0.698l-0.12,0.403l-0.806,0.014
					l-0.161-0.752v-0.778l0.147-0.51l0.819-0.027l0.201,0.269v1.141l0.912,0.027l0.014,0.443L595.905,68.399L595.905,68.399z"/>
				<path id="path3116" stroke="#000000" stroke-width="0.1296" d="M597.087,64.416v-0.268h-0.698l-0.12,0.403l-0.806,0.013
					l-0.161-0.752v-0.778l0.147-0.51l0.819-0.027l0.201,0.269v1.141l0.913,0.027l0.013,0.443L597.087,64.416L597.087,64.416z"/>
				<path id="path3118" stroke="#000000" stroke-width="0.1296" d="M606.549,70.251h-0.967c0,0-1.167,0.846-0.04,2.013
					c0.027-0.04,1.262,0.054,1.262,0.054S607.878,71.07,606.549,70.251L606.549,70.251z"/>
				<path id="path3120" stroke="#000000" stroke-width="0.1296" d="M606.618,74.361h-0.967c0,0-1.168,0.846-0.04,2.014
					c0.026-0.041,1.262,0.054,1.262,0.054S607.947,75.18,606.618,74.361L606.618,74.361z"/>
				<path id="path3122" stroke="#000000" stroke-width="0.1166" d="M606.603,66.496h-0.777c0,0-0.938,0.851-0.032,2.026
					c0.021-0.041,1.015,0.054,1.015,0.054S607.671,67.32,606.603,66.496z"/>
				<path id="path3124" stroke="#000000" stroke-width="0.1104" d="M605.448,63.17h-0.695c0,0-0.84,0.854-0.029,2.032
					c0.02-0.041,0.908,0.054,0.908,0.054S606.404,63.997,605.448,63.17z"/>
				<path id="path3126" stroke="#000000" stroke-width="0.1218" d="M597.779,66.821h-0.851c0,0-1.028,0.849-0.036,2.021
					c0.024-0.041,1.111,0.054,1.111,0.054S598.949,67.643,597.779,66.821L597.779,66.821z"/>
				<path id="path3128" stroke="#000000" stroke-width="0.134" d="M598.056,70.643h-0.965c0,0-1.165,0.906-0.04,2.157
					c0.026-0.043,1.259,0.058,1.259,0.058S599.382,71.52,598.056,70.643L598.056,70.643z"/>
				<path id="path3130" stroke="#000000" stroke-width="0.1263" d="M597.865,74.493h-0.917c0,0-1.108,0.847-0.038,2.017
					c0.025-0.041,1.197,0.054,1.197,0.054S599.125,75.312,597.865,74.493z"/>
				<path id="path3132" stroke="#000000" stroke-width="0.1429" d="M599.629,28.887l3.691,0.049l-0.12,1.36h-3.598L599.629,28.887
					L599.629,28.887z"/>
				<path id="path3134" stroke="#000000" stroke-width="0.1869" d="M603.057,31.715h-3.07l0.002,1.365h3.045L603.057,31.715
					L603.057,31.715z"/>
				<path id="path3136" stroke="#000000" stroke-width="0.2013" d="M600.182,34.635h2.586v1.499h-2.579L600.182,34.635z"/>
				<path id="path3138" stroke="#000000" stroke-width="0.2" d="M600.557,37.319h1.863v0.829h-1.876L600.557,37.319L600.557,37.319z
					"/>
				<path id="path3140" fill="none" stroke="#000000" stroke-width="0.324" d="M600.44,38.937l-0.883-9.985l3.816,0.057
					l-0.893,9.938L600.44,38.937z"/>
				<path id="path3142" fill="none" stroke="#000000" stroke-width="0.311" d="M601.56,28.819v-6.853"/>
			</g>
		</g>
		<g id="layer10">
			<path id="path3090" stroke="#000000" stroke-width="0.1635" d="M588.588,126.637c-0.166,0.595-0.893,1.43-0.956,1.48
				c-5.033,4.001-18.341,4.676-25.574-0.496c-0.286-0.204-1.568-1.822-1.568-1.865c-1.301-11.123-9.133-79.204,12.659-105.559
				c-0.156-0.156,2.35-0.156,2.35-0.156C598.469,43.188,589.705,126.507,588.588,126.637L588.588,126.637z"/>
		</g>
		<g id="layer9">
			<path id="path3293" stroke="#000000" stroke-width="0.0153" d="M467.834,126.676v-2.311l0.257-0.256l-0.013-7.506
				c0,0-0.372-0.463-0.296-0.539c-0.025-0.09-0.025-0.578-0.025-0.578h0.372v-7.006l-0.347-0.243v-0.218l0.347,0.012l-0.347-0.41
				v-0.385l-0.454-0.263v-0.341l0.429-0.295v-0.449l0.295-0.205v-1.643h-0.27l-0.148-0.258v-0.242l0.158-0.158h1.351v1.211h0.27
				v0.205h0.552v-0.205h0.757v0.256h0.437v0.244h0.372v0.154l0.265,0.07v-0.904l0.21-0.386l0.18-0.18h1.81v0.206h2.117v-0.27h1.988
				v0.256h5.184v-0.308h1.964v0.308h5.248v-0.346h1.924v0.346h5.056v-0.333h2.297v0.295h1.835v-0.282h-0.282v-0.5h-0.205v-0.424
				h0.564v-3.24h-0.372V98.64h0.167v-6.41v-1.295l-0.449-0.449v-0.392l0.59-0.225v-1.007l-0.162-0.043v-0.258l0.714-0.449
				l1.053-0.314h1.129v-2.926l-0.431-0.331v-0.544h0.443v-0.177h0.187l-0.035-0.134h-0.146l-0.174-0.174v-0.201l0.492-0.284v-0.645
				h0.217c0.354-2.983,2.122-8.738,7.427-10.611v-0.409h0.23v-0.254c0,0-0.411,0.043-0.469-0.235c0-0.072-0.022-0.305,0.243-0.412
				l0.162-0.012v-0.866h0.135v-0.468h0.16v0.423h0.34v-0.744h-0.186v-0.449h0.359v-3.259l-0.398-0.321v-0.256h0.434v-1.022
				l0.408,0.408v0.499h0.317v-1.851h-0.417v-0.327h0.235v-0.998c0,0,0.536-0.844,0.862-0.844v-0.308l-0.281-0.146v-0.145h0.309
				v-0.785h0.237c0,0-0.202-0.138-0.225-0.27l-0.006-0.301c0,0,0.084-0.148,0.18-0.154c0.109-0.007,0.129-0.006,0.129-0.006v-0.167
				c-0.926-0.454-0.199-1.319-0.007-1.229l0.025-1.6l0.155-0.866l0.155,0.866l0.025,1.6c0.192-0.09,0.919,0.776-0.006,1.229v0.167
				c0,0,0.02,0,0.128,0.006c0.097,0.006,0.18,0.154,0.18,0.154l-0.006,0.301c-0.022,0.132-0.225,0.27-0.225,0.27h0.237v0.785h0.309
				v0.145l-0.281,0.146v0.308c0.327,0,0.862,0.844,0.862,0.844v0.998h0.235v0.327h-0.417v1.851h0.317v-0.499l0.408-0.408v1.022
				h0.434v0.256l-0.397,0.321v3.259h0.359v0.449h-0.187v0.744h0.34v-0.423h0.16v0.468h0.135v0.866l0.162,0.012
				c0.266,0.107,0.243,0.34,0.243,0.412c-0.058,0.278-0.469,0.235-0.469,0.235v0.254h0.23v0.409
				c5.305,1.873,7.074,7.628,7.428,10.611h0.217v0.645l0.492,0.284v0.201l-0.174,0.174h-0.146l-0.036,0.134h0.188v0.177h0.443v0.544
				l-0.431,0.331v2.926h1.129l1.052,0.314l0.714,0.449v0.258l-0.161,0.043v1.007l0.59,0.225v0.392l-0.449,0.449v1.295v6.41h0.167
				v0.917h-0.372v3.24h0.564v0.424h-0.205v0.5h-0.282v0.201h2.554v-0.373h2.296v0.373h5.09v-0.325h1.971v0.363h5.29v-0.354h2.009
				v0.336h4.661v-0.321h2.529v0.298h10.12v-1.854l-0.298-0.223l-0.014-1.197l0.305-0.136v-0.46h-0.298v-1.542h0.899v-0.609
				l0.443,0.007l-0.277-0.373l-0.144-0.172l-0.02-0.383l0.322,0.008v-0.487h0.142v-4.14l-0.243-0.141l-0.364-0.177v-0.589h0.607
				v-0.899h0.176v-0.629h0.291h0.15v-0.781h-0.182v-0.268h0.182v-0.335h0.287v0.326h0.163v0.277h-0.163v0.45h0.229l0.269-0.431
				v-1.358h-0.201v-0.444h0.306v-0.456h0.229v-0.315h-0.22v-0.345h0.201v-0.325h0.153l-0.033-0.123h0.195l-0.018-0.587l0.284-0.386
				v-0.75l0.518-0.842h0.105c0,0,0.048-0.459,0.277-0.498c0-0.019,0.018-0.336,0.018-0.336c-0.203-0.027-0.295-0.395-0.011-0.517
				c0.002,0-0.01-0.311-0.008-0.312c-0.328-0.103-0.33-0.646,0.121-0.66c0.451,0.016,0.449,0.558,0.121,0.661
				c0.002,0.001-0.01,0.312-0.008,0.311c0.284,0.122,0.192,0.49-0.011,0.517c0,0,0.018,0.317,0.018,0.336
				c0.229,0.038,0.277,0.498,0.277,0.498h0.105l0.518,0.842v0.75l0.284,0.385l-0.018,0.587h0.195l-0.033,0.123h0.153v0.325h0.201
				v0.345h-0.22v0.315h0.229v0.456h0.306v0.444h-0.201v1.358l0.269,0.431h0.229v-0.45h-0.163v-0.278h0.163V88.54h0.287v0.335h0.182
				v0.268h-0.182v0.78h0.15h0.291v0.629h0.176v0.899h0.607v0.589l-0.364,0.177l-0.243,0.14v4.14h0.142v0.487l0.322-0.008
				l-0.02,0.383l-0.144,0.172l-0.277,0.373l0.443-0.007v0.609h0.899v1.542h-0.298v0.46l0.305,0.135l-0.014,1.197l-0.298,0.224v1.495
				h1.219v-0.347c0,0-0.22-0.191-0.201-0.335c0,0.039,0.005-0.588,0.005-0.588s0.048-0.196,0.153-0.249
				c-0.015-0.015,0-1.286,0-1.286l0.139-0.135c0,0-0.072-0.261,0.165-0.271c-0.014,0,0.248-0.008,0.165,0.312
				c0-0.005,0.239,0.138,0.239,0.138v0.344h-0.101v0.148h0.163l-0.006,1.182h-0.152v1.086v1.868l0.298,0.188v1.009h-0.148v0.589
				h-0.163v5.547h0.474v0.912h0.318v0.616h-0.155v0.277h-0.474v0.906h0.183v0.649h-0.176v0.568h-0.163v7.103h0.312v0.291h0.169
				v0.169h0.155v2.415L467.834,126.676L467.834,126.676z"/>
		</g>
		<g id="layer8">
			<g id="g3281">
				<g id="g3293">
					<path id="path3295" fill="#1A1A1A" d="M457.092,83.092c0,0.356-0.342,0.645-0.763,0.645s-0.763-0.289-0.763-0.645
						s0.342-0.646,0.763-0.646S457.092,82.735,457.092,83.092z"/>
					<path id="path3297" fill="#1A1A1A" stroke="#1A1A1A" stroke-width="2.4423" d="M456.238,82.616l0.048-2.047l0.077,2.043
						L456.238,82.616L456.238,82.616z"/>
					<path id="path3299" fill="#1A1A1A" d="M456.584,83.538c-0.085,0.348,0.142,2.485,0.174,2.493
						c2.621,0.668,2.973,2.976,2.973,2.976l0.711,0.006v1.302h-0.747l-0.042,9.902l-6.637-0.012l0.014-9.816h-0.713l-0.001-1.386
						l0.678-0.006c0,0,0.167-2.449,2.786-2.89c0.032-0.005,0.35-2.167,0.265-2.515L456.584,83.538L456.584,83.538z"/>
				</g>
				<g id="g3301">
					<path id="path3303" stroke="#000000" stroke-width="0.8839" d="M446.241,79.489c0,0.356-0.341,0.646-0.762,0.646
						c-0.422,0-0.763-0.289-0.763-0.646c0-0.356,0.341-0.645,0.763-0.645C445.901,78.844,446.241,79.133,446.241,79.489z"/>
					<path id="path3305" stroke="#000000" stroke-width="2.4423" d="M445.387,79.014l0.049-2.047l0.077,2.043L445.387,79.014
						L445.387,79.014z"/>
					<path id="path3307" stroke="#000000" stroke-width="0.8276" d="M445.735,79.936c-0.086,0.348,0.142,2.485,0.173,2.493
						c2.621,0.668,2.974,2.976,2.974,2.976l0.711,0.006l-0.001,1.302h-0.747l-0.041,9.902l-6.637-0.012l0.014-9.816h-0.714V85.4
						l0.677-0.006c0,0,0.167-2.449,2.786-2.89c0.033-0.006,0.35-2.167,0.265-2.515L445.735,79.936L445.735,79.936z"/>
				</g>
				<path id="path3310" stroke="#000000" stroke-width="0.8839" d="M486.528,79.443c0,0.356-0.341,0.646-0.762,0.646
					c-0.422,0-0.763-0.289-0.763-0.646c0-0.356,0.341-0.645,0.763-0.645C486.187,78.798,486.528,79.087,486.528,79.443z"/>
				<path id="path3312" stroke="#000000" stroke-width="0.2088" d="M485.673,78.967l0.049-2.047l0.077,2.043L485.673,78.967z"/>
				<g id="g3314">
					<path id="path3316" fill="#1A1A1A" d="M476.999,82.866c0,0.328-0.329,0.593-0.734,0.593s-0.734-0.265-0.734-0.593
						c0-0.327,0.329-0.593,0.734-0.593S476.999,82.539,476.999,82.866z"/>
					<path id="path3318" fill="#1A1A1A" stroke="#1A1A1A" stroke-width="2.3223" d="M476.176,82.43l0.047-1.88l0.074,1.877
						L476.176,82.43L476.176,82.43z"/>
					<path id="path3321" fill="#1A1A1A" d="M476.51,83.276c-0.082,0.32,0.137,2.282,0.167,2.29c2.523,0.613,2.862,2.732,2.862,2.732
						l0.685,0.006v1.196h-0.72l-0.04,9.095l-6.39-0.011l0.013-9.017h-0.687v-1.273l0.651-0.006c0,0,0.161-2.249,2.683-2.654
						c0.032-0.005,0.337-1.99,0.255-2.309L476.51,83.276L476.51,83.276z"/>
				</g>
				<path id="path3323" stroke="#000000" stroke-width="0.0708" d="M486.036,79.996c-0.085,0.348,0.142,2.485,0.174,2.493
					c2.62,0.668,2.973,2.975,2.973,2.975l0.711,0.006l-0.001,1.302h-0.747l-0.041,9.902l-6.637-0.012l0.014-9.816h-0.713
					l-0.001-1.386l0.677-0.006c0,0,0.167-2.449,2.787-2.89c0.032-0.005,0.35-2.166,0.264-2.514L486.036,79.996L486.036,79.996z"/>
				<path id="path3325" stroke="#000000" stroke-width="0.0696" d="M495.814,96.993c0,0,0.003-1.433,0.001-1.428
					c-0.188-0.131-1.23-0.21-1.23-0.21v1.781l-1.102-0.141l-0.015-1.682c-0.674-0.106-0.962-0.141-1.596-0.164l0.011,1.615
					l-1.186-0.139v-1.517c-0.877-0.026-1.508-0.033-1.508-0.033l0.021,1.511l-1.721-0.009h-1.527v-1.605h-2.374l0.022,1.624
					l-1.506-0.007v-1.605l-2.337,0.007l-0.005,1.623l-1.516-0.008V95h-2.374l0.01,1.627l-1.496-0.01v-1.605h-2.374l0.021,1.621
					l-1.507-0.002v-1.605h-2.374l0.021,1.625l-1.505-0.004v-1.605h-2.374l0.01,1.621l-1.495-0.002v-1.604h-2.374l0.017,1.625
					l-1.5-0.006v-1.604h-2.374l0.021,1.623l-1.506-0.007v-1.604h-2.374v1.595h-1.512v-1.555h-9.042l0.073,26.488
					c-0.079,0.017,43.942-0.14,44.021-0.141c0,0,9.024-0.128,9.538-1.229C495.829,119.763,495.814,97.025,495.814,96.993
					L495.814,96.993z"/>
				<path id="path3056" stroke="#000000" stroke-width="0.24" d="M439.283,126.674l-0.011-2.863c0,0-0.562-0.096-0.53-0.308
					c0.032-0.212,0.351-0.059,0.445-0.318c0.305-0.833-0.148-1.442-0.96-1.455c-0.896,0.003-1.296,0.628-0.991,1.461
					c0.095,0.26,0.413,0.106,0.445,0.318c0.031,0.212-0.53,0.308-0.53,0.308l-0.026,2.709v0.16L439.283,126.674L439.283,126.674z"/>
			</g>
		</g>
		<g id="layer6">
			<path id="path2235" d="M320.667,119.671c-2.216,2.257-20.388,3.881-24.772,0.286c0.027,0.014-0.861-2.459-0.861-2.459
				s-1.285-0.214-1.379-0.511c0.001,0.063-0.195-1.78-0.195-1.78s-1.633-0.098-1.836-0.322c-0.006,0.01-0.209-3.168-0.209-3.168
				s-1.146-0.053-1.312-0.295c-0.014,0.041-0.013-1.858-0.013-1.858c0.017,0.011-0.892,0.096-1.195-0.229
				c-0.025,0.002-0.06-2.623-0.06-2.623s-0.65,0.068-0.894-0.188c-0.012-0.119-0.032-2.54-0.032-2.54
				c-0.79-0.053-0.683-0.375-0.683-0.375l0.083-2.324c-0.25-0.039-0.6-0.326-0.56-0.451l0.142-2.332
				c-0.375-0.171-0.429-0.572-0.429-0.645l0.236-2.129c0,0-0.021,0.042-0.236-0.117c-0.095-0.083,0.181-1.754,0.292-1.826
				c0.387-0.483,0.018,0.099-0.216-0.608c-0.025-0.155,0.326-2.316,0.756-2.521c0.214-0.06,3.252-0.609,4.902-0.647
				c-0.049,0.019,3.853,0,3.853,0s6.541,0.71,9.374,2.246c-0.213-0.152,4.678,2.539,5.416,3.051
				c-0.02-0.019,5.765,4.502,7.521,8.013c-0.055-0.107,2.168,3.939,2.553,5.547c-0.018-0.084,0.718,1.939,1.108,3.775
				c0.243,1.145,0.336,1.849,0.429,2.549c0.055,0.053-1.536,0.949-1.723,0.837l-0.027,2.506v0.247L320.667,119.671L320.667,119.671z
				"/>
		</g>
		<g id="layer5">
			<g id="g3843">
				<path id="path3146" d="M118.027,124.686c0,0-16.951,0.586-17.716,0.09c-0.091,0.045-1.554,1.441-2.161,2.68
					c0.022-0.068-0.766-0.091-0.766-0.091s0.598-1.739,0.454-2.249c-0.048,0.064-2.897-0.588-3.741-0.684
					c0.064,0.031-0.796,0.127-1.114,2.626c0.017-0.095-0.731-0.016-0.731-0.016s0-2.499-0.828-2.85
					c-0.032-0.016-10.26-1.512-13.772-2.292c0,0-2.416,1.003-3.18,1.958c-0.382-0.159-0.382-0.159-0.382-0.159
					s2.021-2.229,1.941-2.945c-0.048-0.016,0.069-0.684-1.129-0.543c-0.018,0.012-2.888,1.953-3.259,2.46l-0.315-0.242
					c0,0,1.768-3.022,1.069-3.72c-0.022-0.022-1.667-2.062-2.686-1.887c0.063-0.047-4.346,1.369-4.346,1.369l-0.031-0.263
					c0,0,2.029-1.218,1.966-1.297c0,0-2.174,0.479-2.186,0.659c-0.034-0.158-0.045-0.203-0.045-0.203l3.568-3.027
					c0.337-0.315,4.901-3.562,11.585-6.664c0.66-0.307,9.41-5.248,26.338-5.313c-0.095,0,18.917-1.057,35.261,12
					c0,0,1.283,1.396,2.341,2.296c0.045,0.135-0.157,0.067-0.157,0.067s-2.882-1.418-3.399-0.45c-0.022,0-0.676,1.531-0.067,2.701
					c0.607,1.171,1.823,2.882,1.823,2.882l-0.157,0.09c0,0-2.589-2.882-3.805-2.544c0.112,0.045-1.306,0.203,1.913,3.377
					c0.022,0-0.202,0.203-0.202,0.203s-2.904-2.319-4.029-2.162c-0.946,0.226-10.062,2.68-10.062,2.68s-0.788,1.732-0.315,2.971
					c-0.09,0.023-0.473,0.158-0.473,0.158s-1.193-2.521-1.599-2.521c-0.878,0.09-3.399,0.721-3.399,0.721s0.428,1.823,0.811,2.296
					c-0.54,0.022-0.54,0.045-0.54,0.045S118.387,124.686,118.027,124.686L118.027,124.686z"/>
				<path id="path3148" d="M80.524,107.42l-3.647-13.327l-0.135-2.611l1.306,2.521l3.917,12.606L80.524,107.42L80.524,107.42z"/>
				<path id="path3150" d="M78.813,96.074l-0.271-3.557l1.306,2.836l2.972,11.301l-0.945,0.315L78.813,96.074L78.813,96.074z"/>
				<path id="path3152" d="M84.981,105.304l-2.387-11.751l-0.225-2.701l0.99,2.566l2.972,11.525L84.981,105.304L84.981,105.304z"/>
				<path id="path3154" d="M90.788,103.976l-1.126-7.496l0.046-3.422l1.125,3.287l1.171,7.609L90.788,103.976L90.788,103.976z"/>
				<path id="path3156" d="M93.254,103.293l-1.02-9.774l0.096-2.77l0.828,3.088l1.178,9.423L93.254,103.293L93.254,103.293z"/>
				<path id="path3158" d="M103.622,102.511l0.105-9.342l0.35-2.706l0.542,2.61l0.127,9.423L103.622,102.511L103.622,102.511z"/>
				<path id="path3160" d="M106.911,102.146l0.159-5.125l0.764-3.756l0.637,3.979l-0.127,5.03L106.911,102.146L106.911,102.146z"/>
				<path id="path3162" d="M114.234,102.592l0.986-9.009l0.732-2.802l0.191,3.215l-0.955,8.787L114.234,102.592L114.234,102.592z"/>
				<path id="path3164" d="M121.969,104.12l1.656-7.672l1.272-3.47l-0.318,3.852l-1.432,7.768L121.969,104.12L121.969,104.12z"/>
				<path id="path3166" d="M124.071,104.725l2.196-10.601l0.191-2.993l-1.051,3.12l-2.292,10.25L124.071,104.725L124.071,104.725z"
					/>
				<path id="path3168" d="M128.909,106.444l3.406-11.238l1.273-2.674l-0.286,3.311l-3.024,11.333L128.909,106.444L128.909,106.444z
					"/>
			</g>
		</g>
		<path id="path2236" stroke="#000000" d="M353.625,81.527l0.506,0.011l0.443-2.457l0.205-0.889l-0.289-0.021l-0.027-0.188
			l0.362-0.012l0.286-1.784l0.134-0.98l0.116,1.002l0.3,1.762l0.29,0.011l0.03,0.203l-0.298-0.022l0.831,5.121l0.058,35.492l0,0
			l-11.001-0.001V83.281l0.845-5.209l-0.263,0.024l0.021-0.174l0.266-0.021l0.263-1.393l0.165-1.169l0.094,1.177l0.252,1.324
			l0.265,0.019L347.468,78l-0.22,0.022l0.264,1.057l0.814,2.442l0.505-0.004l2.31-8.219L353.625,81.527L353.625,81.527z"/>
		<path id="path7339" stroke="#000000" d="M421.679,81.485h0.699l0.442-2.479l0.206-0.889l-0.29-0.021l-0.027-0.188l0.363-0.012
			l0.286-1.784l0.134-0.98l0.116,1.002l0.3,1.762l0.29,0.011l0.03,0.203l-0.298-0.022l0.831,5.121l0.058,35.491l0,0l-11.002-0.001
			V83.206l0.846-5.21l-0.263,0.024l0.021-0.174l0.265-0.021l0.264-1.394l0.164-1.168l0.094,1.177l0.253,1.324l0.265,0.019
			l-0.011,0.142l-0.22,0.022l0.264,1.057l0.696,2.552l0.649,0.004l2.282-8.337L421.679,81.485L421.679,81.485z"/>
		<path id="path7342" stroke="#000000" d="M413.835,89.09l-26.097,0.007v-0.501c0,0,0.159-1.01-0.471-0.957
			c0.023-0.007-0.569-0.091-0.516,0.828l-1.269-0.015l-0.015-0.782c0,0,0.865-1.017-0.297-1.382
			c-0.589,0.239-0.585,0.801-0.243,1.306c0.162,0.239,0.062,0.614,0.062,0.874l-1.291,0.007c0,0,0.041-0.821-0.318-0.82
			c0,0-0.797-0.202-0.614,1.18h-26.33v3.895h58.687v-3.65L413.835,89.09L413.835,89.09z"/>
		<g id="g13443">
			<path id="path8345" fill="none" stroke="#000000" stroke-width="3.3" d="M346.423,92.993
				c-16.783,16.759-25.182,24.523-46.654,25.191c0,0-16.812,0.961-26.241-6.203c0,0.043,0,0.043,0,0.043"/>
			<path id="path8336" fill="none" stroke="#000000" stroke-width="3.3" d="M346.163,92.118c0,0-23.91,22.21-46.465,24.767
				c0,0-11.733,0.994-26.492-6.416"/>
			<path id="path11254" fill="none" stroke="#000000" d="M340,97.351l-1.792,3.766"/>
			<path id="path11256" fill="none" stroke="#000000" d="M337.297,99.112l3.645-0.243"/>
			<path id="path11258" fill="none" stroke="#000000" d="M337.783,99.233l-1.336,3.28l0,0l0.121-0.092"/>
			<path id="path11262" fill="none" stroke="#000000" d="M330.966,104.168l3.766-0.273"/>
			<path id="path11264" fill="none" stroke="#000000" d="M330.192,104.608l-3.492,5.558"/>
			<path id="path11266" fill="none" stroke="#000000" d="M326.046,107.326l5.102,0.273"/>
			<path id="path11268" fill="none" stroke="#000000" d="M325.378,107.509l-3.401,5.739"/>
			<path id="path11270" fill="none" stroke="#000000" d="M321.643,109.482l4.464,1.701"/>
			<path id="path11272" fill="none" stroke="#000000" d="M320.853,110.029l-3.553,5.254"/>
			<path id="path11274" fill="none" stroke="#000000" d="M317.057,111.73l4.525,2.004"/>
			<path id="path11276" fill="none" stroke="#000000" d="M316.632,112.064l-3.888,4.585"/>
			<path id="path11278" fill="none" stroke="#000000" d="M312.593,113.703l4.069,1.793"/>
			<path id="path11280" fill="none" stroke="#000000" d="M311.197,114.311l-3.007,3.311"/>
			<path id="path11282" fill="none" stroke="#000000" d="M307.856,115.313l3.492,1.548"/>
			<path id="path11284" fill="none" stroke="#000000" d="M306.58,115.799c-0.122,0-2.794,2.187-2.794,2.187"/>
			<path id="path11286" fill="none" stroke="#000000" d="M303.604,116.315l2.977,1.427"/>
			<path id="path11288" fill="none" stroke="#000000" d="M302.723,116.71l-2.186,1.579"/>
			<path id="path11290" fill="none" stroke="#000000" stroke-width="2" d="M300.234,117.014l3.097,1.307"/>
			<path id="path12267" fill="none" stroke="#000000" stroke-width="2" d="M339.711,99.522v21.318"/>
			<path id="path12269" fill="none" stroke="#000000" stroke-width="2" d="M335.156,100.857v20.104"/>
			<path id="path12271" fill="none" stroke="#000000" stroke-width="2" d="M330.601,103.713v17.219"/>
			<path id="path12273" fill="none" stroke="#000000" stroke-width="2" d="M325.924,106.871v13.969"/>
			<path id="path12275" fill="none" stroke="#000000" stroke-width="2" d="M321.187,109.482v11.357"/>
			<path id="path12277" fill="none" stroke="#000000" stroke-width="2" d="M316.814,111.426v9.354l0.118-0.067l0.004,0.007"/>
			<path id="path12279" fill="none" stroke="#000000" stroke-width="2" d="M312.198,113.369v7.471"/>
			<path id="path12281" fill="none" stroke="#000000" stroke-width="2" d="M307.765,114.949v6.013"/>
			<path id="path12283" fill="none" stroke="#000000" stroke-width="2" d="M303.149,116.225v4.798"/>
			<path id="path12376" fill="none" stroke="#000000" d="M335.414,100.965l3.387-0.213"/>
			<path id="path12378" fill="none" stroke="#000000" d="M334.124,101.814l-2.794,5.072"/>
			<path id="path7591" fill="none" stroke="#000000" stroke-width="2" d="M294.372,120.756v-4.16"/>
			<path id="path7593" fill="none" stroke="#000000" stroke-width="2" d="M289.544,120.756v-4.768"/>
			<path id="path7595" fill="none" stroke="#000000" stroke-width="2" d="M284.989,120.665v-5.739"/>
			<path id="path7597" fill="none" stroke="#000000" stroke-width="2" d="M280.404,120.514v-6.955h0.121"/>
			<path id="path7599" fill="none" stroke="#000000" stroke-width="2" d="M275.969,120.331v-8.595"/>
			<path id="path8572" fill="none" stroke="#000000" d="M294.525,117.841l3.583-0.82"/>
			<path id="path8574" fill="none" stroke="#000000" d="M294.555,116.535l3.826,1.67"/>
			<path id="path8576" fill="none" stroke="#000000" d="M289.726,117.477l4.98-0.668"/>
			<path id="path8578" fill="none" stroke="#000000" d="M289.786,115.958l4.677,2.308v-0.03l0,0"/>
			<path id="path8580" fill="none" stroke="#000000" d="M285.049,116.809l4.373-0.729"/>
			<path id="path8582" fill="none" stroke="#000000" d="M285.111,114.986l4.19,2.732"/>
			<path id="path8584" fill="none" stroke="#000000" d="M280.494,115.745l4.434-0.851"/>
			<path id="path8586" fill="none" stroke="#000000" d="M280.525,113.498l4.373,3.34l0,0"/>
			<path id="path8588" fill="none" stroke="#000000" d="M276.031,113.893l4.251-0.364"/>
			<path id="path8590" fill="none" stroke="#000000" d="M276.152,111.707l4.069,3.826"/>
		</g>
		<g id="g12056">
			<g id="g11860">
				<path id="path11862" fill="none" stroke="#000000" stroke-width="3.3" d="M423.688,93.093
					c16.783,16.759,25.182,24.522,46.654,25.19c0,0,16.812,0.961,26.241-6.203"/>
				<path id="path11864" fill="none" stroke="#000000" stroke-width="3.3" d="M423.948,92.218c0,0,23.91,22.209,46.465,24.767
					c0,0,11.734,0.993,26.493-6.417"/>
				<path id="path11866" fill="none" stroke="#000000" d="M430.111,97.45l1.792,3.766"/>
				<path id="path11868" fill="none" stroke="#000000" d="M432.814,99.212l-3.645-0.243"/>
				<path id="path11870" fill="none" stroke="#000000" d="M432.327,99.333l1.337,3.28l0,0l-0.122-0.092"/>
				<path id="path11872" fill="none" stroke="#000000" d="M439.145,104.268l-3.766-0.273"/>
				<path id="path11874" fill="none" stroke="#000000" d="M439.92,104.709l3.492,5.557"/>
				<path id="path11876" fill="none" stroke="#000000" d="M444.065,107.426l-5.102,0.273"/>
				<path id="path11878" fill="none" stroke="#000000" d="M444.733,107.608l3.401,5.739"/>
				<path id="path11880" fill="none" stroke="#000000" d="M448.468,109.582l-4.464,1.701"/>
				<path id="path11882" fill="none" stroke="#000000" d="M449.258,110.129l3.553,5.254"/>
				<path id="path11884" fill="none" stroke="#000000" d="M453.054,111.83l-4.525,2.004"/>
				<path id="path11886" fill="none" stroke="#000000" d="M453.479,112.164l3.888,4.586"/>
				<path id="path11888" fill="none" stroke="#000000" d="M457.518,113.804l-4.069,1.792"/>
				<path id="path11890" fill="none" stroke="#000000" d="M458.915,114.411l3.006,3.31"/>
				<path id="path11892" fill="none" stroke="#000000" d="M462.255,115.413l-3.492,1.549"/>
				<path id="path11894" fill="none" stroke="#000000" d="M463.531,115.898c0.122,0,2.794,2.188,2.794,2.188"/>
				<path id="path11896" fill="none" stroke="#000000" d="M466.507,116.415l-2.977,1.428"/>
				<path id="path11898" fill="none" stroke="#000000" d="M467.388,116.811l2.187,1.578"/>
				<path id="path11900" fill="none" stroke="#000000" stroke-width="2" d="M469.878,117.113l-3.098,1.307"/>
				<path id="path11902" fill="none" stroke="#000000" stroke-width="2" d="M430.4,99.622v21.318"/>
				<path id="path11904" fill="none" stroke="#000000" stroke-width="2" d="M434.954,100.958v20.104"/>
				<path id="path11906" fill="none" stroke="#000000" stroke-width="2" d="M439.51,103.812v17.219"/>
				<path id="path11908" fill="none" stroke="#000000" stroke-width="2" d="M444.187,106.971v13.969"/>
				<path id="path11910" fill="none" stroke="#000000" stroke-width="2" d="M448.924,109.582v11.357"/>
				<path id="path11912" fill="none" stroke="#000000" stroke-width="2" d="M453.297,111.525v9.354l-0.118-0.067l-0.004,0.007"/>
				<path id="path11914" fill="none" stroke="#000000" stroke-width="2" d="M457.912,113.47v7.47"/>
				<path id="path11916" fill="none" stroke="#000000" stroke-width="2" d="M462.346,115.049v6.013"/>
				<path id="path11918" fill="none" stroke="#000000" stroke-width="2" d="M466.962,116.324v4.798"/>
				<path id="path11920" fill="none" stroke="#000000" d="M434.697,101.064l-3.386-0.213"/>
				<path id="path11922" fill="none" stroke="#000000" d="M435.987,101.914l2.794,5.072"/>
				<path id="path11924" fill="none" stroke="#000000" stroke-width="2" d="M475.739,120.855v-4.16"/>
				<path id="path11926" fill="none" stroke="#000000" stroke-width="2" d="M480.568,120.855v-4.768"/>
				<path id="path11928" fill="none" stroke="#000000" stroke-width="2" d="M485.122,120.765v-5.739"/>
				<path id="path11930" fill="none" stroke="#000000" stroke-width="2" d="M489.708,120.613v-6.955h-0.122"/>
				<path id="path11932" fill="none" stroke="#000000" stroke-width="2" d="M494.142,120.431v-8.594"/>
				<path id="path11934" fill="none" stroke="#000000" d="M475.587,117.94l-3.584-0.819"/>
				<path id="path11936" fill="none" stroke="#000000" d="M475.557,116.635l-3.827,1.67"/>
				<path id="path11938" fill="none" stroke="#000000" d="M480.385,117.576l-4.98-0.668"/>
				<path id="path11940" fill="none" stroke="#000000" d="M480.324,116.058l-4.677,2.308v-0.029l0,0"/>
				<path id="path11942" fill="none" stroke="#000000" d="M485.062,116.908l-4.373-0.729"/>
				<path id="path11944" fill="none" stroke="#000000" d="M485.001,115.086l-4.191,2.733"/>
				<path id="path11946" fill="none" stroke="#000000" d="M489.617,115.846l-4.435-0.851"/>
				<path id="path11948" fill="none" stroke="#000000" d="M489.586,113.598l-4.373,3.341l0,0"/>
				<path id="path11950" fill="none" stroke="#000000" d="M494.081,113.992l-4.252-0.363"/>
				<path id="path11952" fill="none" stroke="#000000" d="M493.959,111.807l-4.069,3.826"/>
			</g>
			<path id="path11954" fill="none" stroke="#000000" stroke-width="2.1378" d="M503.257,110.594l15.335,9.248"/>
			<path id="path11956" fill="none" stroke="#000000" stroke-width="2.1378" d="M502.634,111.109l14.53,8.975"/>
		</g>
		<path id="path2241" stroke="#000000" d="M300.239,121.242l-0.011-2.899c0,0-0.569-0.097-0.537-0.312s0.354-0.059,0.451-0.322
			c0.308-0.844-0.15-1.459-0.972-1.473c-0.908,0.003-1.312,0.636-1.005,1.479c0.097,0.264,0.419,0.107,0.451,0.322
			s-0.537,0.312-0.537,0.312l-0.026,2.743v0.161L300.239,121.242L300.239,121.242z"/>
		<path id="path2249" stroke="#000000" d="M471.974,121.229l-0.011-2.899c0,0-0.569-0.096-0.537-0.311s0.355-0.06,0.451-0.322
			c0.308-0.844-0.15-1.461-0.972-1.474c-0.908,0.003-1.312,0.636-1.005,1.479c0.097,0.264,0.419,0.107,0.451,0.322
			s-0.536,0.311-0.536,0.311l-0.027,2.744v0.16L471.974,121.229L471.974,121.229z"/>
		<path id="path10593" stroke="#000000" stroke-width="0.9041" d="M266.291,121.264l76.164,0.012v-0.432l0,0
			c-0.006,0-67.754-0.145-76.169-0.149L266.291,121.264L266.291,121.264z"/>
		<path id="path2253" stroke="#000000" stroke-width="0.9041" d="M266.297,118.643h76.297v1.448h-76.296L266.297,118.643
			L266.297,118.643z"/>
		<g id="g2268">
			<path id="path2264" stroke="#000000" d="M427.785,118.732h136.101v1.504H427.648L427.785,118.732L427.785,118.732z"/>
			<path id="path2266" stroke="#000000" d="M563.686,120.865c-0.013,0-136.419-0.054-136.419-0.054l0.011,0.502h136.407
				L563.686,120.865L563.686,120.865z"/>
		</g>
		<path id="path2276" stroke="#000000" d="M410.499,118.66h17.826v10.082h-17.917L410.499,118.66z"/>
		<path id="path2280" stroke="#000000" d="M342.201,118.66h17.826v10.082h-17.917L342.201,118.66z"/>
		<g id="g4241">
			<path id="path2291" stroke="#000000" d="M358.484,119.492l22.936-11.432l0.682,1.354l-22.949,11.428L358.484,119.492z"/>
			<path id="path2296" fill="none" stroke="#000000" stroke-width="3" d="M358.619,126.341c0.017,0.003,13.938-11.523,23.158-16.236
				l0.644-0.329"/>
			<path id="path3270" fill="none" stroke="#000000" stroke-width="2.9" d="M361.057,124.237l-2.227-3.858l4.181,1.63l-1.355-2.788
				l3.96,0.941l-1.325-2.686l3.676,0.928l-1.091-2.287l3.461,0.663l-0.924-1.854l2.871,0.393l-0.824-1.412l2.622,0.254l-0.681-1.221
				l2.276,0.138l-0.536-1.028l2.074,0.07l-0.766-1.489l0,0"/>
		</g>
		<g id="g4247">
			<path id="path4249" stroke="#000000" d="M411.691,119.281l-22.936-11.43l-0.682,1.352l22.95,11.429L411.691,119.281z"/>
			<path id="path4251" fill="none" stroke="#000000" stroke-width="3" d="M411.556,126.131
				c-0.017,0.003-13.939-11.523-23.158-16.236l-0.645-0.329"/>
			<path id="path4253" fill="none" stroke="#000000" stroke-width="2.9" d="M409.117,124.027l2.227-3.857l-4.18,1.629l1.354-2.789
				l-3.96,0.943l1.326-2.687l-3.677,0.928l1.091-2.287l-3.461,0.663l0.924-1.854l-2.87,0.394l0.823-1.413l-2.621,0.254l0.68-1.221
				l-2.275,0.138l0.536-1.028l-2.074,0.071l0.766-1.49l0,0"/>
		</g>
		<path id="path12772" stroke="#000000" stroke-width="0.2055" d="M269.831,98.625c0.083-0.037,0.149-0.134,0.149-0.236l0,0
			c0-0.134-0.104-0.244-0.231-0.244c-0.127,0-0.23,0.109-0.23,0.244c0,0.105,0.063,0.196,0.161,0.235l-0.022,1.366l-0.387,0.005
			v0.262h0.145c0,0,0.032,0.398-0.044,0.691c-1.002,2.611-1.928,2.93-1.928,2.93l-1.129-0.012l-0.545,1.043l-0.011,3.578
			l-0.581,0.007l-0.008,0.804h0.6v8.38l-0.666,1.724l0.021,8.618l0,0l9.151-0.001l-0.021-8.73l-0.688-1.724v-8.267h0.6l-0.008-0.805
			l-0.58-0.006l-0.012-3.578l-0.48-0.998l-0.996-0.034c0,0-0.804-0.493-1.94-2.966c-0.028-0.452,0.004-0.656-0.002-0.66l0,0
			l0.145,0.002l-0.003-0.27h-0.392L269.831,98.625L269.831,98.625z"/>
		<path id="path12108" stroke="#000000" stroke-width="0.2055" d="M500.142,98.625c0.083-0.037,0.149-0.134,0.149-0.236l0,0
			c0-0.134-0.104-0.244-0.23-0.244c-0.128,0-0.231,0.109-0.231,0.244c0,0.105,0.064,0.196,0.162,0.235l-0.023,1.366l-0.386,0.005
			v0.262h0.145c0,0,0.031,0.398-0.044,0.691c-1.002,2.611-1.928,2.93-1.928,2.93l-1.13-0.012l-0.545,1.043l-0.011,3.578l-0.58,0.007
			l-0.009,0.804h0.6v8.38l-0.665,1.724l0.021,8.618l0,0l9.15-0.001l-0.021-8.73l-0.688-1.724v-8.267h0.6l-0.008-0.805l-0.581-0.006
			l-0.011-3.578l-0.48-0.998l-0.996-0.034c0,0-0.805-0.493-1.94-2.966c-0.029-0.452,0.004-0.656-0.002-0.66l0,0l0.144,0.002
			l-0.003-0.27h-0.392L500.142,98.625L500.142,98.625z"/>
		<g id="layer3">
			<g id="g3766">
				<path id="path2836" d="M44.155,44.462c0,1.266-1.025,2.292-2.291,2.292s-2.292-1.026-2.292-2.292s1.026-2.292,2.292-2.292
					S44.155,43.196,44.155,44.462z"/>
				<path id="path2838" d="M35.356,46.17c0,1.265-1.026,2.292-2.292,2.292s-2.291-1.026-2.291-2.292
					c0-1.266,1.025-2.292,2.291-2.292S35.356,44.905,35.356,46.17z"/>
				<path id="path2840" d="M28.288,48.921c0,1.266-1.025,2.292-2.291,2.292s-2.292-1.026-2.292-2.292s1.026-2.292,2.292-2.292
					S28.288,47.656,28.288,48.921z"/>
				<path id="path2842" d="M21.707,53.129c0,1.266-1.025,2.292-2.291,2.292s-2.292-1.026-2.292-2.292s1.026-2.292,2.292-2.292
					S21.707,51.863,21.707,53.129z"/>
				<path id="path2844" d="M16.313,58.362c0,1.266-1.025,2.292-2.291,2.292s-2.292-1.026-2.292-2.292s1.026-2.292,2.292-2.292
					S16.313,57.096,16.313,58.362z"/>
				<path id="path2846" d="M11.944,64.565c0,1.266-1.026,2.292-2.292,2.292s-2.291-1.026-2.291-2.292s1.025-2.292,2.291-2.292
					S11.944,63.3,11.944,64.565z"/>
				<path id="path2848" d="M8.706,71.686c0,1.266-1.025,2.292-2.291,2.292s-2.292-1.026-2.292-2.292s1.026-2.292,2.292-2.292
					S8.706,70.42,8.706,71.686z"/>
				<path id="path2850" d="M6.981,79.238c0,1.266-1.026,2.292-2.292,2.292s-2.291-1.026-2.291-2.292s1.025-2.292,2.291-2.292
					S6.981,77.973,6.981,79.238z"/>
				<path id="path2852" d="M6.441,86.898c0,1.266-1.025,2.292-2.291,2.292s-2.292-1.026-2.292-2.292s1.026-2.292,2.292-2.292
					S6.441,85.633,6.441,86.898z"/>
				<path id="path2854" d="M7.736,94.774c0,1.266-1.026,2.292-2.292,2.292c-1.265,0-2.291-1.026-2.291-2.292
					s1.026-2.292,2.291-2.292C6.709,92.483,7.736,93.509,7.736,94.774z"/>
				<path id="path2856" d="M10.217,102.111c0,1.266-1.026,2.291-2.291,2.291c-1.266,0-2.292-1.025-2.292-2.291
					s1.026-2.292,2.292-2.292C9.191,99.819,10.217,100.846,10.217,102.111z"/>
				<path id="path2858" d="M14.371,109.34c0,1.266-1.026,2.291-2.292,2.291s-2.292-1.025-2.292-2.291s1.026-2.291,2.292-2.291
					S14.371,108.074,14.371,109.34z"/>
				<path id="path2860" d="M20.574,115.812c0,1.266-1.025,2.292-2.291,2.292s-2.292-1.026-2.292-2.292s1.026-2.291,2.292-2.291
					S20.574,114.547,20.574,115.812z"/>
				<path id="path2862" d="M27.533,120.723c0,1.266-1.026,2.291-2.292,2.291s-2.291-1.025-2.291-2.291s1.025-2.292,2.291-2.292
					S27.533,119.457,27.533,120.723z"/>
				<path id="path2864" d="M36.62,124.229c0,1.266-1.025,2.291-2.291,2.291s-2.292-1.025-2.292-2.291s1.026-2.291,2.292-2.291
					S36.62,122.963,36.62,124.229z"/>
				<path id="path2866" d="M47.036,125.088c0,1.266-1.026,2.291-2.292,2.291s-2.292-1.025-2.292-2.291s1.026-2.291,2.292-2.291
					S47.036,123.822,47.036,125.088z"/>
				<path id="path2868" d="M56.097,124.579c0,1.266-1.025,2.292-2.291,2.292s-2.292-1.026-2.292-2.292s1.026-2.292,2.292-2.292
					S56.097,123.313,56.097,124.579z"/>
				<path id="path2870" d="M65.618,121.424c0,1.266-1.025,2.291-2.291,2.291s-2.292-1.025-2.292-2.291s1.026-2.292,2.292-2.292
					S65.618,120.158,65.618,121.424z"/>
				<path id="path2872" d="M73.548,116.191c0,1.266-1.025,2.291-2.291,2.291s-2.292-1.025-2.292-2.291s1.026-2.292,2.292-2.292
					S73.548,114.926,73.548,116.191z"/>
				<path id="path2874" d="M79.483,109.879c0,1.266-1.026,2.292-2.292,2.292s-2.291-1.026-2.291-2.292s1.025-2.291,2.291-2.291
					S79.483,108.613,79.483,109.879z"/>
				<path id="path2876" d="M83.852,102.92c0,1.266-1.025,2.292-2.291,2.292s-2.292-1.026-2.292-2.292s1.026-2.291,2.292-2.291
					S83.852,101.654,83.852,102.92z"/>
				<path id="path2878" d="M86.603,95.26c0,1.266-1.025,2.292-2.291,2.292s-2.292-1.026-2.292-2.292s1.026-2.292,2.292-2.292
					S86.603,93.995,86.603,95.26z"/>
				<path id="path2880" d="M87.951,87.6c0,1.266-1.025,2.292-2.291,2.292s-2.292-1.026-2.292-2.292s1.026-2.292,2.292-2.292
					S87.951,86.334,87.951,87.6z"/>
				<path id="path2882" d="M87.79,79.67c0,1.266-1.026,2.292-2.292,2.292s-2.291-1.026-2.291-2.292s1.025-2.292,2.291-2.292
					S87.79,78.404,87.79,79.67z"/>
				<path id="path2884" d="M85.902,71.686c0,1.266-1.025,2.292-2.291,2.292s-2.292-1.026-2.292-2.292s1.026-2.292,2.292-2.292
					S85.902,70.42,85.902,71.686z"/>
				<path id="path2886" d="M82.881,64.997c0,1.266-1.026,2.292-2.292,2.292s-2.291-1.026-2.291-2.292s1.025-2.292,2.291-2.292
					S82.881,63.731,82.881,64.997z"/>
				<path id="path2888" d="M78.188,58.416c0,1.266-1.026,2.292-2.292,2.292c-1.265,0-2.291-1.026-2.291-2.292
					s1.026-2.292,2.291-2.292C77.161,56.124,78.188,57.15,78.188,58.416z"/>
				<path id="path2890" d="M72.902,53.237c0,1.266-1.026,2.292-2.292,2.292s-2.292-1.026-2.292-2.292s1.026-2.292,2.292-2.292
					S72.902,51.971,72.902,53.237z"/>
				<path id="path2892" d="M66.32,48.976c0,1.266-1.025,2.292-2.291,2.292s-2.292-1.026-2.292-2.292s1.026-2.292,2.292-2.292
					S66.32,47.71,66.32,48.976z"/>
				<path id="path2894" d="M59.199,46.062c0,1.266-1.026,2.292-2.292,2.292s-2.291-1.026-2.291-2.292s1.025-2.292,2.291-2.292
					S59.199,44.797,59.199,46.062z"/>
				<path id="path2896" d="M51.971,44.606c0,1.266-1.026,2.292-2.292,2.292s-2.292-1.026-2.292-2.292s1.026-2.292,2.292-2.292
					S51.971,43.34,51.971,44.606z"/>
				<path id="path2898" fill="none" stroke="#000000" stroke-width="0.9" d="M77.536,84.527c0,18.327-14.857,33.184-33.185,33.184
					s-33.185-14.857-33.185-33.184c0-18.327,14.857-33.185,33.185-33.185S77.536,66.2,77.536,84.527z"/>
				<path id="path2900" fill="none" stroke="#000000" stroke-width="2.8275" d="M82.926,84.757c0,21.02-17.04,38.059-38.059,38.059
					c-21.02,0-38.059-17.039-38.059-38.059c0-21.019,17.039-38.059,38.059-38.059C65.886,46.699,82.926,63.738,82.926,84.757
					L82.926,84.757z"/>
				<path id="path2902" fill="none" stroke="#000000" stroke-width="0.3055" d="M32.336,53.553l-3.434-2.937l0.268,4.463
					l-3.318-2.747l0.267,4.272l-3.09-2.594l0.648,4.311l-3.318-1.945l1.106,3.814l-4.196-1.106l1.831,3.472l-3.929-0.801
					l1.983,3.547l-4.349-0.61l2.594,3.357h-4.119l2.67,2.289l-4.006,0.725l2.747,2.251l-4.12,1.259l3.014,2.403l-3.509,1.793
					l3.242,1.602l-4.12,2.212l3.204,0.61l-3.356,2.937l3.738,0.458l-3.357,3.204l4.12,0.19l-3.548,3.242l4.12-0.076l-3.242,3.052
					l4.539,0.076l-3.014,3.128l4.12-0.458l-2.823,4.12l4.501-1.45l-2.594,4.73l4.349-1.907l-1.602,5.531l4.31-2.518l-1.259,5.569
					l4.463-2.785l-0.801,5.493l3.929-3.128l-0.343,5.76l3.891-3.891l0.725,5.607l3.586-3.967l1.029,5.607l3.09-4.54l1.564,5.265
					l2.327-4.959l2.517,5.264l1.603-5.227l2.556,4.883l1.449-5.531l3.281,4.578l0.687-5.455l3.738,4.158l0.152-5.607l3.967,3.814
					l-0.305-5.951l4.157,3.357l-0.877-5.455l3.891,2.976l-1.068-5.76l4.501,2.212l-1.602-5.607l4.615,1.832l-2.441-5.035
					l4.845,1.525l-3.28-4.959l5.073,0.458l-3.7-3.891l4.539-0.229l-3.814-3.433l4.807-1.259l-4.311-2.938l4.577-1.182l-4.196-2.174
					l4.234-1.183l-4.691-1.64l4.157-2.594l-5.111-0.42l3.853-2.861h-4.233l4.157-2.899l-5.34,0.153l3.433-3.662l-4.959,1.221
					l3.357-3.776l-4.845,0.458l2.212-4.387l-4.577,1.793l1.755-4.997l-4.005,2.403l1.144-5.111l-3.967,2.975l0.268-5.569
					l-3.376,3.376l-0.645-5.612l-3.938,3.075l-0.809-5.017l-3.021,3.83l-0.647-4.693l-2.805,4.154l-1.457-4.747l-1.672,4.1
					l-2.104-4.585l-1.403,4.585l-2.805-4.046l-0.378,4.316l-3.614-3.615l-0.216,4.532l-3.345-3.291L32.336,53.553L32.336,53.553
					L32.336,53.553z"/>
				<path id="path2904" stroke="#000000" stroke-width="0.9" d="M47.365,83.688c0,1.412-1.145,2.556-2.556,2.556
					c-1.412,0-2.556-1.144-2.556-2.556c0-1.411,1.144-2.556,2.556-2.556C46.221,81.132,47.365,82.276,47.365,83.688z"/>
				<path id="path2906" stroke="#000000" stroke-width="0.3486" d="M43.687,85.874l0.811,0.01c0,0-1.192,11.455-4.748,43.973
					l-4.152-0.081"/>
				<path id="path2908" stroke="#000000" stroke-width="0.3527" d="M45.356,85.835l-0.831,0.01c0,0,1.717,13.763,5.287,44.121
					l3.825-0.233"/>
			</g>
		</g>
		<g id="svg_62">
			<g id="svg_4">
				<path id="svg_5" stroke="#000000" stroke-width="0.1233" d="M267.957,122.064v-39.62h0.691v-9.742h-1.33v-1.576h-0.611
					l-1.809-3.322v-3.031l-1.954-6.858l-0.013-1.273v1.272l-2.12,6.858v3.031l-1.809,3.322h-0.611v1.577h-1.33v9.742h0.691v39.625
					L267.957,122.064L267.957,122.064z"/>
				<path id="svg_6" fill="#FFFFFF" d="M265.697,77.358c0.001,1.897-1.384,3.436-3.093,3.436s-3.094-1.539-3.093-3.436
					c-0.001-1.897,1.384-3.436,3.093-3.436S265.698,75.46,265.697,77.358z"/>
			</g>
			<path id="svg_7" d="M246.61,104.182l16.702-0.053v17.938l-16.736,0.055L246.61,104.182L246.61,104.182z"/>
			<path id="svg_8" d="M141.458,68.214l-2.367,3.584l-0.107-11.79l-1.505-2.256l-1.945,2.183l-0.028,54.626l19.489-6.979v6.998
				l0.028-54.392l-1.608-2.65l-1.895,2.47v11.836l-2.283-3.572l-2.106-0.006l-0.05-3.371l-1.858-2.961l-1.832,3.033l0.004,3.246
				L141.458,68.214L141.458,68.214z"/>
			<path id="svg_9" stroke="#000000" stroke-width="0.0181" d="M191.838,108.574V93.011l-1.938-5.382v-4.357
				c0,0-3.271-7.931-3.4-13.441c-0.055-0.2-0.07-0.207-0.121-0.007c-0.129,5.51-3.386,13.447-3.386,13.447v4.357l-1.938,4.254
				v16.691"/>
			<path id="svg_10" stroke="#000000" stroke-width="0.2058" d="M175.736,126.861h-11.188V91.637l1.451-3.258l1.137,3.238
				l0.015,3.334h6.123v-3.621l1.206-2.94l1.243,2.996L175.736,126.861L175.736,126.861z"/>
			<path id="svg_11" stroke="#000000" stroke-width="0.2058" d="M215.306,126.879h-11.188V91.655l1.452-3.258l1.136,3.239
				l0.015,3.334h6.123v-3.62l1.206-2.94l1.243,2.997L215.306,126.879z"/>
			<g id="svg_18">
				<path id="svg_19" stroke="#000000" d="M251.398,126.867h-9.293V91.643l1.206-3.258l0.943,3.238l0.013,3.334h5.086v-3.621
					l1.001-2.94l1.033,2.996L251.398,126.867L251.398,126.867z"/>
				<path id="svg_20" stroke="#000000" d="M236.177,126.869h-9.293V91.646l1.206-3.258l0.943,3.238l0.013,3.334h5.086V91.34
					l1.001-2.94l1.033,2.996L236.177,126.869L236.177,126.869z"/>
				<path id="svg_21" stroke="#000000" stroke-width="0.2345" d="M237.652,100.961l0.027,0.264c0.25,0.184,0.276,0.643,0.271,0.646
					l-0.009,2.784l-0.6,0.005l-0.008-2.789c-0.006-0.003,0.021-0.462,0.27-0.646l0.018-0.264H237.652z"/>
				<path id="svg_22" stroke="#000000" stroke-width="1.8359" d="M230.673,104.771h17.139l-0.395,22.012l-16.876,0.01
					L230.673,104.771L230.673,104.771z"/>
				<path id="svg_23" stroke="#000000" stroke-width="0.2345" d="M240.876,100.961l0.028,0.264c0.249,0.184,0.276,0.643,0.271,0.646
					l-0.008,2.784l-0.601,0.005l-0.008-2.789c-0.006-0.003,0.021-0.462,0.27-0.646l0.018-0.264H240.876L240.876,100.961z"/>
			</g>
			<g id="svg_37">
				<path id="svg_38" stroke="#000000" stroke-width="0.236" d="M151.672,103.918l0.052,0.263c0.459,0.185,0.508,0.644,0.497,0.646
					l-0.015,2.785l-1.104,0.004l-0.016-2.789c-0.011-0.002,0.039-0.461,0.498-0.646l0.03-0.263H151.672L151.672,103.918z"/>
				<path id="svg_39" stroke="#000000" stroke-width="0.236" d="M158.188,103.918l0.052,0.263c0.459,0.185,0.509,0.644,0.498,0.646
					l-0.016,2.785l-1.104,0.004l-0.016-2.789c-0.011-0.002,0.039-0.461,0.498-0.646l0.031-0.263H158.188L158.188,103.918z"/>
				<path id="svg_40" stroke="#000000" stroke-width="0.236" d="M164.834,103.918l0.052,0.263c0.459,0.185,0.508,0.644,0.497,0.646
					l-0.016,2.785l-1.104,0.004l-0.016-2.789c-0.011-0.002,0.038-0.461,0.497-0.646l0.031-0.263H164.834L164.834,103.918z"/>
				<path id="svg_41" stroke="#000000" stroke-width="0.236" d="M171.35,103.918l0.052,0.263c0.459,0.185,0.509,0.644,0.498,0.646
					l-0.016,2.785l-1.104,0.004l-0.016-2.789c-0.011-0.002,0.039-0.461,0.498-0.646l0.031-0.263H171.35L171.35,103.918z"/>
				<path id="svg_42" stroke="#000000" stroke-width="0.236" d="M177.951,103.991l0.052,0.263c0.459,0.185,0.509,0.644,0.498,0.646
					l-0.016,2.784l-1.104,0.005l-0.016-2.789c-0.011-0.004,0.039-0.462,0.498-0.646l0.031-0.263H177.951L177.951,103.991z"/>
				<path id="svg_43" stroke="#000000" stroke-width="0.236" d="M184.468,103.991l0.052,0.263c0.458,0.185,0.508,0.644,0.497,0.646
					l-0.016,2.784l-1.104,0.005l-0.015-2.789c-0.011-0.004,0.038-0.462,0.497-0.646l0.031-0.263H184.468L184.468,103.991z"/>
				<path id="svg_44" stroke="#000000" stroke-width="0.236" d="M191.114,103.991l0.052,0.263c0.459,0.185,0.508,0.644,0.497,0.646
					l-0.015,2.784l-1.104,0.005l-0.016-2.789c-0.011-0.004,0.039-0.462,0.498-0.646l0.031-0.263H191.114L191.114,103.991z"/>
				<path id="svg_45" stroke="#000000" stroke-width="0.236" d="M197.629,103.991l0.052,0.263c0.459,0.185,0.509,0.644,0.498,0.646
					l-0.016,2.784l-1.104,0.005l-0.016-2.789c-0.011-0.004,0.039-0.462,0.498-0.646l0.031-0.263H197.629L197.629,103.991z"/>
				<path id="svg_46" stroke="#000000" stroke-width="0.236" d="M204.55,103.846l0.052,0.263c0.459,0.185,0.508,0.644,0.497,0.646
					l-0.015,2.785l-1.104,0.004l-0.016-2.789c-0.011-0.002,0.039-0.461,0.497-0.646l0.031-0.263H204.55L204.55,103.846z"/>
				<path id="svg_47" stroke="#000000" stroke-width="0.236" d="M211.196,103.846l0.052,0.263c0.459,0.185,0.509,0.644,0.498,0.646
					l-0.016,2.785l-1.104,0.004l-0.016-2.789c-0.011-0.002,0.039-0.461,0.498-0.646l0.031-0.263H211.196L211.196,103.846z"/>
				<path id="svg_48" stroke="#000000" stroke-width="0.236" d="M217.712,103.846l0.051,0.263c0.459,0.185,0.509,0.644,0.498,0.646
					l-0.016,2.785l-1.104,0.004l-0.015-2.789c-0.011-0.002,0.038-0.461,0.497-0.646l0.031-0.263H217.712L217.712,103.846z"/>
				<path id="svg_49" stroke="#000000" stroke-width="1.1399" d="M135.899,107.516h97.338v19.35h-97.694L135.899,107.516z"/>
			</g>
		</g>
	</g>
</g>
</svg>
